<svg width="721" height="175" viewBox="0 0 721 175" fill="none" xmlns="http://www.w3.org/2000/svg">
<path d="M238.191 71.2156V55.8444C238.191 54.0725 239.63 52.6369 241.406 52.6369H252.808C254.582 52.6369 256.02 54.0725 256.02 55.8444V71.2156C256.02 72.9874 257.459 74.423 259.233 74.423H275.548C277.323 74.423 278.762 75.8586 278.762 77.6291V84.6514C278.762 86.422 277.323 87.8575 275.548 87.8575H259.233C257.459 87.8575 256.02 89.2931 256.02 91.065V124.712C256.02 129.555 257.476 133.308 260.387 135.968C263.297 138.631 266.874 139.962 271.12 139.962C272.212 139.962 273.213 139.872 274.124 139.69C275.032 139.509 275.606 139.418 275.85 139.418L278.992 151.532C279.452 153.301 278.338 155.095 276.547 155.473L276.487 155.485C274.486 155.91 272.395 156.12 270.212 156.12C260.387 156.12 252.624 153.397 246.924 147.951C241.22 142.505 238.311 134.88 238.191 125.076V91.065" fill="#FFEEE3"/>
<path d="M294.77 152.914V77.6291C294.77 75.8586 296.208 74.423 297.982 74.423H309.384C311.16 74.423 312.599 75.8586 312.599 77.6291V80.3593C312.599 83.1029 315.79 84.4946 317.901 82.7373C317.923 82.7187 317.944 82.7014 317.965 82.6842C320.086 80.9296 322.361 79.506 324.788 78.4173C327.212 77.3274 329.73 76.5112 332.338 75.9662C334.944 75.4213 337.461 75.1488 339.889 75.1488C341.431 75.1488 342.847 75.2312 344.134 75.3947C346.346 75.6765 347.613 78.0478 346.607 80.0337L341.373 90.3645C340.74 91.6139 339.38 92.2799 337.992 92.0699C335.977 91.7628 333.718 91.7801 331.219 92.1257C331.044 92.1496 330.863 92.1855 330.694 92.2294C326.298 93.3725 322.57 95.5205 319.512 98.6602C317.447 100.779 315.782 103.261 314.509 106.104C313.235 108.948 312.599 112.003 312.599 115.273V152.914C312.599 154.685 311.16 156.12 309.384 156.12H297.982C296.208 156.12 294.77 154.685 294.77 152.914Z" fill="#FFEEE3"/>
<path d="M376.274 99.3843V152.914C376.274 154.686 374.836 156.121 373.061 156.121H361.839C360.065 156.121 358.625 154.686 358.625 152.914V99.3843C358.625 97.6137 360.065 96.1782 361.839 96.1782H373.061C374.836 96.1782 376.274 97.6137 376.274 99.3843Z" fill="#FFEEE3"/>
<path d="M396.277 152.914V77.6291C396.277 75.8586 397.716 74.423 399.491 74.423H410.714C412.488 74.423 413.927 75.8586 413.927 77.6291V77.8311C413.927 80.4856 416.993 82.0182 419.077 80.3713C420.724 79.0713 422.522 77.9056 424.477 76.8741C428.723 74.6357 433.511 73.5151 438.85 73.5151C444.186 73.5151 448.976 74.4549 453.222 76.3291C457.466 78.2073 461.046 80.7488 463.957 83.9549C466.867 87.1623 469.112 90.9147 470.689 95.2108C472.262 99.5082 473.055 104.016 473.055 108.736V152.914C473.055 154.685 471.616 156.12 469.842 156.12H458.618C456.844 156.12 455.405 154.685 455.405 152.914V107.647C455.405 104.864 454.887 102.292 453.859 99.9309C452.827 97.5702 451.463 95.5139 449.764 93.758C448.066 92.0047 446.035 90.6117 443.672 89.5815C441.307 88.5567 438.729 88.0396 435.939 88.0396C432.302 88.0396 429.117 88.7375 426.386 90.1265C423.658 91.5195 421.354 93.2755 419.474 95.3916C417.592 97.5104 416.2 99.7488 415.291 102.11C414.381 104.469 413.927 106.679 413.927 108.736V152.914C413.927 154.685 412.488 156.12 410.714 156.12H399.491C397.716 156.12 396.277 154.685 396.277 152.914Z" fill="#FFEEE3"/>
<path d="M502.709 115.271C502.709 119.266 503.346 122.957 504.619 126.344C505.891 129.735 507.65 132.699 509.894 135.242C512.137 137.783 514.776 139.778 517.809 141.232C520.838 142.684 524.053 143.411 527.451 143.411C530.362 143.411 533.302 142.808 536.273 141.597C539.246 140.388 541.916 138.601 544.279 136.24C546.643 133.88 548.582 130.946 550.101 127.434C551.617 123.925 552.375 119.87 552.375 115.271C552.375 111.398 551.739 107.736 550.466 104.287C549.191 100.837 547.432 97.8424 545.19 95.2996C542.944 92.7581 540.307 90.7616 537.274 89.3088C532.887 87.2073 527.991 86.6251 522.588 87.5662C522.392 87.6007 522.193 87.6486 522.003 87.7084C517.151 89.245 513.115 91.8316 509.894 95.4817C507.65 98.0232 505.891 100.99 504.619 104.378C503.346 107.768 502.709 111.398 502.709 115.271ZM484.879 115.271C484.879 109.342 485.879 103.833 487.88 98.749C489.882 93.666 492.671 89.249 496.249 85.4965C499.827 81.7468 504.041 78.8105 508.894 76.6917C513.742 74.5756 518.961 73.5135 524.541 73.5135C530.362 73.5135 535.697 74.9371 540.55 77.7804C542.903 79.1601 545.041 80.7459 546.967 82.539C549.027 84.4584 552.375 83.0361 552.375 80.2222V55.7829C552.375 54.0124 553.813 52.5755 555.588 52.5755H566.992C568.766 52.5755 570.205 54.0124 570.205 55.7829V152.912C570.205 154.683 568.766 156.119 566.992 156.119H555.588C553.813 156.119 552.375 154.683 552.375 152.912V150.214C552.375 147.405 549.03 145.971 546.973 147.889C545.003 149.729 542.832 151.353 540.46 152.76C535.667 155.605 530.362 157.026 524.541 157.026C518.961 157.026 513.742 155.939 508.894 153.759C504.041 151.581 499.827 148.615 496.249 144.864C492.671 141.113 489.882 136.692 487.88 131.612C485.879 126.527 484.879 121.08 484.879 115.271Z" fill="#FFEEE3"/>
<path d="M622.645 119.811H654.339C656.58 119.811 658.132 117.579 657.349 115.484L641.431 72.8931C640.39 70.107 636.439 70.1123 635.407 72.901L619.63 115.492C618.854 117.587 620.407 119.811 622.645 119.811ZM630.063 43.7417H646.934C648.263 43.7417 649.457 44.5592 649.932 45.798L690.761 151.763C691.57 153.863 690.017 156.12 687.762 156.12H674.112C672.771 156.12 671.571 155.289 671.102 154.037L664.84 137.327C664.37 136.073 663.17 135.243 661.83 135.243H615.003C613.654 135.243 612.448 136.085 611.985 137.349L605.885 154.013C605.422 155.28 604.216 156.12 602.867 156.12H589.235C586.981 156.12 585.427 153.863 586.237 151.763L627.063 45.798C627.541 44.5592 628.733 43.7417 630.063 43.7417Z" fill="#FFEEE3"/>
<path d="M702.078 152.914V46.767C702.078 44.9965 703.517 43.5596 705.291 43.5596H717.785C719.559 43.5596 720.998 44.9965 720.998 46.767V152.914C720.998 154.685 719.559 156.12 717.785 156.12H705.291C703.517 156.12 702.078 154.685 702.078 152.914Z" fill="#FFEEE3"/>
<path d="M376.274 76.7216V84.5654C376.274 86.3359 374.836 87.7715 373.061 87.7715H361.839C360.065 87.7715 358.625 86.3359 358.625 84.5654V76.7216C358.625 74.9497 360.065 73.5142 361.839 73.5142H373.061C374.836 73.5142 376.274 74.9497 376.274 76.7216Z" fill="white"/>
<path d="M22.2298 94.9952L35.8857 91.6216C36.4105 91.4927 36.854 91.159 37.1204 90.6911C42.6962 80.8562 74.5393 25.3648 75.9646 23.1197C76.8584 21.7533 77.3632 21.0355 77.6829 20.6766L77.8427 20.4746C79.3959 18.405 81.3459 16.8551 83.7809 15.6747C83.8674 15.6322 83.9607 15.595 84.0513 15.5618C91.7916 12.7717 98.108 13.633 103.838 18.2521C103.914 18.3133 103.989 18.3797 104.058 18.4502C105.483 19.8791 106.799 21.4582 107.962 23.1649C108.351 23.7259 108.717 24.3081 109.061 24.8903C110.975 28.1828 113.024 31.664 115.19 35.3354C115.547 35.9402 116.206 36.3163 116.909 36.3097L128.746 36.1794C130.256 36.1635 131.182 34.5192 130.413 33.2219C128.327 29.7048 126.341 26.3219 124.453 23.1197C123.422 21.3279 122.392 19.6013 121.406 17.8985C119.276 14.3123 116.735 11.0849 113.848 8.2603L113.459 7.9014C103.565 -0.369072 91.4945 -2.18479 78.5767 2.63367L78.0958 2.83571C73.4005 4.98773 69.4844 8.08085 66.4607 12.026C65.4297 13.3034 63.5969 15.8808 59.3597 23.1423C57.8026 25.8101 55.9245 29.1265 53.6334 33.2285L20.052 92.1241C19.1982 93.6208 20.5555 95.4086 22.2298 94.9952Z" fill="#F9304D"/>
<path d="M173.059 151.103C171.289 153.997 169.419 155.912 167.497 156.799C163.097 158.867 158.146 159.919 152.73 159.944C137.791 159.905 124.834 159.888 113.59 159.888C102.757 159.888 93.534 159.904 85.6458 159.933C83.5093 159.15 81.7044 158.218 80.3511 157.158C78.3131 155.482 76.4283 153.319 74.7459 150.732L73.5711 148.923L108.849 86.7458C112.869 80.1502 115.964 77.0344 117.889 75.5763C126.31 70.0334 133.452 70.9532 141.597 78.676C147.867 89.4069 154.697 101.048 162.087 113.606L166.295 120.393L166.218 120.553C166.757 121.318 167.261 122.037 167.743 122.728L174.038 132.883C175.204 134.875 175.814 137.215 175.814 139.887C175.814 143.154 174.888 146.923 173.059 151.103ZM140.702 174.256L140.39 174.175C140.506 174.175 140.622 174.176 140.739 174.176L140.702 174.256ZM54.3142 152.486C51.794 155.811 49.3737 157.975 47.0774 158.972C45.2165 159.756 42.5685 160.353 39.2771 160.716V160.723H39.1958C39.2118 160.716 39.2291 160.713 39.2464 160.708C39.1399 160.715 39.032 160.716 38.9254 160.723C38.4086 160.724 37.8985 160.725 37.3736 160.727C36.1588 160.721 34.9707 160.656 33.8038 160.546C33.1885 160.479 32.5837 160.406 32.011 160.315C31.7752 160.299 31.5461 160.26 31.313 160.235C29.8571 159.998 28.4465 159.67 27.0758 159.265C20.3692 156.787 15.5752 150.353 15.5752 142.809C15.5752 142.494 15.5339 142.169 15.5499 141.86C15.5832 138.239 16.8127 134.488 19.5939 131.26C23.1677 127.113 28.1854 124.83 33.7239 124.83C41.3763 124.83 47.3278 131.224 51.3345 137.512C53.5802 141.882 55.4997 145.578 57.0808 148.575C56.1271 150.018 55.2 151.34 54.3142 152.486ZM41.2951 126.272C38.9947 125.174 36.4479 124.412 33.7732 123.993C33.8518 124 33.9357 124.005 34.0143 124.013C36.7915 124.42 39.2012 125.174 41.2951 126.272ZM188.387 130.153C187.813 128.563 187.147 127.007 186.279 125.53L174.325 106.244C166.833 93.5116 159.846 81.599 153.447 70.6488C153.447 70.6488 153.06 70.0573 152.911 69.8659C152.773 69.6878 152.296 69.1667 152.296 69.1667C139.157 56.2147 124.062 54.3126 109.799 63.8192L109.511 64.0213C105.16 67.2407 100.929 72.2824 96.5776 79.4377L96.4684 79.6251L65.6043 134.024C65.0622 132.975 64.4974 131.877 63.886 130.689L63.6729 130.305C60.7598 125.401 58.6073 122.349 56.7411 120.486C51.5449 114.668 44.5305 111.1 35.8884 109.876L35.6167 109.842C27.0958 108.96 14.7374 110.966 4.34237 125.503L3.82421 126.313C1.28673 130.637 0 135.466 0 140.669C0 146.053 1.40262 151.913 4.16788 158.087L4.5435 158.811C7.87753 164.427 11.9388 168.368 16.5636 170.503C22.8121 173.441 29.7905 174.949 37.3577 174.987C38.4499 174.984 39.5062 174.981 40.5825 174.979L40.8941 175L41.046 174.979C58.4088 174.939 73.7243 174.926 86.9339 174.936L140.35 174.996L140.348 175C140.365 174.999 140.381 174.997 140.397 174.996L143.595 175L142.889 174.818C145.921 174.6 148.847 174.394 151.674 174.201C152.037 174.202 152.38 174.202 152.747 174.204C155.165 174.192 157.499 173.975 159.792 173.664C160.028 173.648 160.28 173.631 160.516 173.616C164.488 173.33 168.32 172.545 171.946 171.299L172.416 171.124C183.629 166.263 190.17 156.857 191.337 143.948L191.361 143.459C191.438 138.733 190.423 134.263 188.387 130.153Z" fill="#F9304D"/>
</svg>
