<?xml version="1.0" standalone="no"?>
<!DOCTYPE svg PUBLIC "-//W3C//DTD SVG 20010904//EN"
 "http://www.w3.org/TR/2001/REC-SVG-20010904/DTD/svg10.dtd">
<svg version="1.0" xmlns="http://www.w3.org/2000/svg"
 width="1184.000000pt" height="896.000000pt" viewBox="0 0 1184.000000 896.000000"
 preserveAspectRatio="xMidYMid meet">
<metadata>
Created by potrace 1.16, written by Peter Selinger 2001-2019
</metadata>
<g transform="translate(0.000000,896.000000) scale(0.100000,-0.100000)"
fill="#000000" stroke="none">
<path d="M8896 8535 c-122 -34 -262 -128 -321 -218 -19 -28 -143 -279 -276
-557 -322 -674 -370 -780 -364 -791 8 -13 663 -12 782 2 112 12 228 51 305
103 95 63 117 89 541 640 106 138 226 293 267 347 261 336 355 462 355 472 0
19 -1222 20 -1289 2z"/>
<path d="M330 8100 c0 -7 46 -89 102 -184 155 -262 489 -824 708 -1191 108
-181 324 -544 480 -805 1214 -2036 1195 -2003 1260 -2135 14 -27 30 -49 35
-48 6 1 19 32 31 70 57 183 113 294 292 572 152 236 201 326 244 451 30 89 33
104 32 225 0 235 4 226 -488 1080 -86 149 -346 603 -578 1009 -459 802 -479
832 -595 893 -131 70 -97 67 -845 71 -507 2 -678 0 -678 -8z"/>
<path d="M5974 8099 c-90 -11 -139 -26 -229 -69 -141 -68 -265 -191 -347 -345
-17 -33 -211 -375 -431 -760 -500 -877 -767 -1344 -1132 -1985 -158 -278 -339
-591 -401 -696 -132 -224 -170 -298 -222 -431 -92 -231 -142 -459 -162 -732
-7 -95 -10 -537 -8 -1271 l3 -1125 710 0 710 0 6 1175 c4 789 10 1204 18 1264
29 228 92 461 183 681 74 179 67 167 648 1145 106 179 258 435 338 570 79 135
213 360 297 500 848 1421 1225 2060 1225 2075 0 13 -76 15 -572 14 -315 -1
-601 -5 -634 -10z"/>
<path d="M8435 6374 c-22 -2 -92 -9 -155 -15 -924 -86 -1615 -453 -2139 -1139
-138 -180 -234 -328 -566 -870 -75 -124 -186 -304 -246 -401 -123 -200 -134
-222 -126 -243 8 -19 68 -36 131 -36 155 0 332 102 482 278 36 42 116 151 177
242 145 216 217 308 315 402 222 212 563 404 655 369 56 -21 72 -82 37 -139
-21 -34 -36 -44 -274 -185 -166 -98 -281 -199 -322 -283 -23 -46 -26 -64 -22
-124 5 -95 27 -124 94 -128 45 -3 65 5 216 83 92 47 270 131 395 186 466 205
580 292 752 569 102 165 156 234 258 330 98 93 165 133 296 178 96 34 111 36
259 40 191 5 285 -7 434 -57 141 -47 207 -86 311 -185 68 -64 92 -95 124 -160
67 -137 85 -277 53 -419 -44 -196 -166 -334 -403 -456 -175 -90 -434 -162
-991 -276 -354 -72 -467 -97 -675 -150 -846 -218 -1330 -579 -1514 -1132 -55
-164 -66 -246 -66 -488 0 -193 3 -234 23 -329 154 -721 730 -1169 1629 -1266
145 -16 531 -8 668 14 532 86 1001 362 1341 791 61 77 84 98 84 78 0 -5 7 -51
15 -103 31 -194 88 -317 201 -431 106 -107 228 -169 416 -211 94 -20 129 -22
393 -23 l290 0 0 1915 c0 1053 -4 1950 -8 1993 -8 70 -17 91 -23 54 -28 -164
-89 -336 -164 -469 -215 -378 -575 -699 -1031 -918 -63 -30 -117 -59 -121 -65
-4 -5 -8 -62 -8 -125 -1 -590 -171 -987 -540 -1262 -170 -126 -397 -225 -607
-264 -118 -22 -395 -30 -507 -15 -204 27 -369 103 -493 226 -67 66 -90 98
-123 167 -121 251 -77 541 112 743 82 88 168 147 310 214 141 68 263 106 629
201 402 104 532 140 704 197 349 115 629 247 880 416 569 382 850 937 755
1490 -32 192 -112 366 -241 527 -272 341 -782 572 -1423 646 -125 14 -567 27
-651 18z"/>
</g>
</svg>
